<svg xmlns="http://www.w3.org/2000/svg" xmlns:xlink="http://www.w3.org/1999/xlink" width="100%" height="100%" version="1.1" viewBox="0 0 2323 519" xml:space="preserve" style="fill-rule:evenodd;clip-rule:evenodd;stroke-linejoin:round;stroke-miterlimit:2"><g transform="matrix(4.16667,0,0,4.16667,-802.025,4.73695e-13)"><g id="OBJECTS"><clipPath id="_clip1"><rect width="750" height="142.24" x="0" y="0"/></clipPath><g clip-path="url(#_clip1)"><g><path d="M0.936,-0.165L0.912,-0.182L0.881,-0.167L0.909,-0.147L0.931,-0.157L0.93,-0.155L0.91,-0.146L0.908,-0.124L0.907,-0.122L0.909,-0.146L0.88,-0.166L0.877,-0.131L0.878,-0.131L0.878,-0.131L0.901,-0.114L0.901,-0.113L0.877,-0.13L0.844,-0.115L0.816,-0.134C0.815,-0.134 0.814,-0.133 0.813,-0.134C0.812,-0.135 0.812,-0.136 0.812,-0.137L0.784,-0.156L0.787,-0.192L0.788,-0.193L0.818,-0.172L0.815,-0.138C0.815,-0.138 0.815,-0.138 0.815,-0.138C0.816,-0.138 0.816,-0.137 0.816,-0.137L0.847,-0.152L0.876,-0.132L0.879,-0.166L0.819,-0.208L0.851,-0.223C0.851,-0.224 0.851,-0.224 0.851,-0.225C0.852,-0.226 0.853,-0.226 0.854,-0.225C0.855,-0.225 0.855,-0.224 0.855,-0.223L0.912,-0.183L0.936,-0.194L0.937,-0.193L0.913,-0.182L0.937,-0.166L0.936,-0.165ZM0.88,-0.167L0.911,-0.182L0.882,-0.202L0.851,-0.187L0.88,-0.167ZM0.816,-0.135L0.844,-0.116L0.875,-0.131L0.847,-0.151L0.816,-0.136C0.816,-0.136 0.816,-0.135 0.816,-0.135ZM0.85,-0.188L0.881,-0.203L0.854,-0.222C0.853,-0.221 0.852,-0.221 0.852,-0.222C0.851,-0.222 0.851,-0.222 0.851,-0.222L0.821,-0.208L0.85,-0.188ZM0.785,-0.157L0.813,-0.138C0.813,-0.138 0.813,-0.138 0.814,-0.138L0.817,-0.172L0.788,-0.192L0.785,-0.157ZM0.883,-0.088L0.875,-0.093C0.874,-0.093 0.873,-0.093 0.872,-0.093C0.872,-0.093 0.872,-0.093 0.872,-0.093L0.842,-0.079L0.866,-0.063L0.865,-0.062L0.841,-0.079L0.809,-0.064L0.838,-0.044L0.86,-0.054L0.858,-0.052L0.838,-0.043L0.837,-0.021L0.835,-0.019L0.837,-0.043L0.809,-0.063L0.806,-0.028L0.83,-0.011L0.829,-0.01L0.806,-0.027L0.806,-0.027L0.775,-0.048L0.743,-0.033L0.74,0.002L0.773,-0.013L0.802,0.008L0.803,0.007L0.803,0.008L0.812,0.015L0.812,0.015L0.803,0.009L0.801,0.031L0.8,0.033L0.802,0.009L0.77,0.024L0.767,0.059L0.788,0.049L0.787,0.051L0.768,0.06L0.776,0.066L0.776,0.067L0.767,0.061L0.765,0.082L0.764,0.084L0.766,0.06L0.738,0.041C0.738,0.042 0.736,0.042 0.736,0.041C0.735,0.041 0.735,0.041 0.735,0.041L0.704,0.055L0.673,0.034L0.707,0.018L0.71,-0.018L0.742,-0.033L0.745,-0.069L0.777,-0.084L0.75,-0.103C0.749,-0.103 0.748,-0.103 0.748,-0.103C0.747,-0.104 0.746,-0.105 0.747,-0.106C0.748,-0.107 0.749,-0.107 0.75,-0.107C0.75,-0.107 0.75,-0.107 0.75,-0.106L0.782,-0.121L0.841,-0.08L0.871,-0.094C0.871,-0.095 0.871,-0.096 0.872,-0.096C0.872,-0.097 0.874,-0.097 0.875,-0.097C0.875,-0.096 0.876,-0.095 0.875,-0.094L0.884,-0.089L0.883,-0.088ZM0.77,0.023L0.801,0.008L0.772,-0.012L0.741,0.003L0.77,0.023ZM0.738,0.037C0.738,0.037 0.738,0.037 0.738,0.037C0.739,0.038 0.739,0.039 0.739,0.04L0.766,0.059L0.769,0.024L0.74,0.004L0.738,0.037ZM0.776,-0.049L0.805,-0.029L0.808,-0.063L0.779,-0.083L0.776,-0.049ZM0.808,-0.064L0.84,-0.079L0.811,-0.099L0.78,-0.084L0.808,-0.064ZM0.735,0.038C0.736,0.037 0.736,0.037 0.736,0.037L0.739,0.004L0.708,0.019L0.735,0.038ZM0.704,0.054L0.735,0.04C0.735,0.039 0.735,0.039 0.735,0.038L0.707,0.019L0.676,0.034L0.704,0.054ZM0.743,-0.034L0.775,-0.049L0.778,-0.083L0.746,-0.069L0.743,-0.034ZM0.739,0.003L0.742,-0.032L0.711,-0.017L0.708,0.018L0.739,0.003ZM0.751,-0.104L0.779,-0.085L0.81,-0.1L0.781,-0.12L0.751,-0.105C0.751,-0.105 0.751,-0.105 0.751,-0.104ZM0.758,0.093L0.734,0.076L0.702,0.091L0.731,0.111L0.753,0.1L0.751,0.102L0.732,0.111L0.741,0.118L0.74,0.118L0.701,0.091L0.668,0.107L0.638,0.085L0.669,0.071C0.669,0.07 0.669,0.069 0.67,0.069C0.67,0.068 0.672,0.068 0.673,0.068C0.673,0.069 0.674,0.07 0.673,0.071L0.701,0.09L0.734,0.075L0.759,0.092L0.758,0.093ZM0.668,0.106L0.7,0.091L0.673,0.072C0.672,0.072 0.671,0.072 0.67,0.072C0.67,0.072 0.67,0.072 0.67,0.072L0.64,0.086L0.668,0.106ZM0.722,0.144L0.699,0.128L0.696,0.163L0.705,0.169L0.704,0.17L0.695,0.163L0.664,0.178L0.687,0.195L0.687,0.196L0.663,0.179L0.66,0.214L0.669,0.221L0.669,0.221L0.659,0.215L0.628,0.23L0.652,0.246L0.651,0.247L0.627,0.231L0.624,0.266L0.634,0.272L0.633,0.273L0.624,0.267L0.623,0.288L0.621,0.29L0.623,0.267L0.592,0.282L0.589,0.315C0.589,0.315 0.589,0.315 0.589,0.316C0.59,0.316 0.59,0.316 0.59,0.316L0.61,0.306L0.609,0.308L0.59,0.317C0.59,0.317 0.59,0.318 0.59,0.319C0.589,0.32 0.588,0.32 0.587,0.319C0.586,0.318 0.586,0.317 0.586,0.316C0.587,0.316 0.587,0.315 0.588,0.315L0.591,0.282L0.56,0.261L0.594,0.245L0.623,0.265L0.626,0.23L0.596,0.209L0.628,0.194C0.628,0.194 0.628,0.193 0.628,0.193L0.599,0.173L0.603,0.136L0.632,0.157L0.635,0.121L0.666,0.142L0.663,0.177L0.695,0.162L0.698,0.126L0.723,0.143L0.722,0.144ZM0.633,0.159L0.631,0.192C0.631,0.192 0.631,0.192 0.631,0.192C0.632,0.193 0.632,0.194 0.632,0.194L0.659,0.213L0.662,0.179L0.633,0.159ZM0.627,0.229L0.658,0.214L0.631,0.195C0.63,0.196 0.629,0.196 0.629,0.196C0.628,0.195 0.628,0.195 0.628,0.195L0.598,0.209L0.627,0.229ZM0.591,0.281L0.623,0.266L0.594,0.246L0.563,0.261L0.591,0.281ZM0.633,0.157L0.662,0.177L0.665,0.143L0.636,0.123L0.633,0.157ZM0.601,0.173L0.628,0.192C0.629,0.192 0.629,0.192 0.629,0.192L0.632,0.158L0.604,0.138L0.601,0.173Z" style="fill:#d9ecff;fill-rule:nonzero" transform="matrix(511.557,-738.228,-738.228,-511.557,127.835,607)"/></g></g></g></g></svg>